<svg xmlns="http://www.w3.org/2000/svg" viewBox="0 0 132 140" fill="currentColor">
    <path class="fill"
        d="M119.87,73.33C113,55.58,96.12,41.51,80.36,35.81a15.55,15.55,0,0,0-12-8.67V16.3a8.28,8.28,0,1,0-4,0V27.14a15.51,15.51,0,0,0-11.93,8.57C36.6,41.34,19.56,55.48,12.65,73.33a15.51,15.51,0,0,0-1.39,30.16c6,22.07,27,36.57,55,36.57s48.94-14.5,55-36.57a15.51,15.51,0,0,0-1.39-30.16ZM66.26,132.06c-33.71,0-48.8-21.2-48.8-42.2,0-26,30.41-48.8,48.8-48.8s48.8,22.8,48.8,48.8C115.06,110.86,100,132.06,66.26,132.06Z" />
    <path class="fill"
        d="M98.51,65.55c-3.78-3.78-5.65-5.63-9.33-9.25C83,61.74,79.83,64.54,73.24,70.37a345,345,0,0,0-46.76,3.1c-.37,4.7-.55,7-.91,11.75,11.65-1.66,22.92-2.73,34.67-3.28-2.66,2.39-4,3.6-6.71,6.06a221.91,221.91,0,0,0-28.41,3.09c-.36,4.7-.54,7-.89,11.75,6.16-1,9.25-1.48,15.44-2.14-3.32,3.08-5,4.65-8.39,7.86,3.67,2.76,5.53,4.17,9.32,7.06,7.49-6.78,11.15-10,18.28-16.24a344.61,344.61,0,0,1,49.41,3.46c-.36-4.7-.54-7-.89-11.75-11.78-1.69-23.17-2.78-35.06-3.35l6.51-5.55a220.82,220.82,0,0,1,28.1,3c-.37-4.7-.55-7-.91-11.75-5.84-.94-8.76-1.33-14.62-1.93Z" />
</svg>