<svg viewBox="0 0 133 141" width="133" xmlns="http://www.w3.org/2000/svg" fill="currentColor">
    <path
        d="m66.3719.9996c4.565 0 8.279 3.714 8.279 8.28 0 3.7848837-2.5558442 6.9754072-6.0293536 7.9585512l-.2496464.0664488v10.838c5.3.684 9.758 4.037 11.987 8.667 15.756 5.698 32.639 19.769 39.511 37.522 7.198 1.348 12.648 7.654 12.648 15.243 0 7.09-4.761 13.057-11.257 14.911-6.058 22.078-26.986 36.57-55.002 36.57s-48.944-14.492-55.002-36.57c-6.496-1.854-11.257-7.821-11.257-14.911 0-7.589 5.45-13.895 12.648-15.243 6.913-17.857 23.954-31.994 39.789-37.627 2.1949545-4.4710227 6.4757645-7.7319819 11.5777323-8.5116467l.3572677-.0503533v-10.838c-3.601-.898-6.28-4.15-6.28-8.025 0-4.566 3.714-8.28 8.28-8.28zm-.113 41.056c-18.385 0-48.8 22.809-48.8 48.8 0 21.005 15.09 42.2 48.8 42.2 33.711 0 48.8-21.195 48.8-42.2 0-25.991-30.415-48.8-48.8-48.8zm-34.4814 63.3799 1.5831141.279727 1.482778.255191 1.3991673.232814 1.3322817.212595c.652207.101602 1.2856039.196431 1.9095985.285701l1.2382407.171488 1.2298933.158822c.2052158.025534.4107806.050631.617043.075335l1.2487322.14387c.2104462.023313.4222869.046322.6358704.069074l1.3052027.133774c.2219486.021899.446337.043631.6735136.065239l1.399305.128533 1.4829465.127738 1.583313.129099.1712923 1.374881c.0279353.21959.0556194.43473.0831352.645916l.1637393 1.223614.1636852 1.152436.1676161 1.104994.1755319 1.081284.1874328 1.081309.2033185 1.105068.2231893 1.15256c.0390756.19737.079145.397708.1202916.601507l.2604673 1.268302.2903005 1.375129-.6893417-.113306-1.3106738-.223863c-4.4411977-.780413-7.4354043-1.551344-11.7450574-3.041793l-1.2695102-.446051-1.3554169-.488987-.2956534-.532903-.5502343-1.007555c-.0873961-.162033-.1727222-.321313-.2561053-.478129l-.477998-.913655c-1.4462618-2.814307-2.282809-4.948478-3.381009-8.389758zm74.6107-13.6517c-.19831 5.3031724-.73815 8.135893-2.600884 13.098313l-.436116 1.139687c-15.712 3.489-32.023 4.473-48.063 3.592l-.2083088-2.292071-.1194222-1.404689-.1050025-1.328287-.0915605-1.270986-.0790963-1.232784-.0676097-1.213683c-.0103654-.20175-.0202929-.4035-.0298029-.605648l-.052213-1.2208461c-.0079215-.2053313-.0154662-.4118565-.0226546-.6199734l-.0390161-1.2709852c-.0058442-.2160754-.0113728-.4345384-.0166061-.6557869l-.0280191-1.3641006-.0219099-1.4500533-.0167783-1.5551065c17.336.051 34.664-.064 51.998-.345zm-53.2801-32.308c-2.626 15.296-3.465 29.389-2.6 44.885l-2.3695377-.152502-1.4559902-.100783-1.3783471-.10219c-.2242694-.01725-.446065-.034635-.6657676-.052191l-1.2961441-.107705-1.2641831-.11365c-.2090489-.019537-.4175275-.039398-.6258165-.05962l-1.2505031-.125968-1.2642243-.136448c-.2128626-.023715-.4270583-.047943-.6429678-.072721l-1.3190674-.15557c-.2242873-.027129-.4510496-.054884-.6806678-.083302l-1.4150245-.178774-2.2910201-.301987c-.2676934-.035998-.5401461-.072848-.8177387-.110589-4.473-12.396-4.211-26.105 2.362-37.727l1.3805054-.542064c.2232898-.0867116.4433368-.1716502.6603726-.2548804l1.267934-.4793968 1.206784-.441497c4.3263556-1.553131 7.6437378-2.4045151 12.418526-3.242399l1.340202-.2286962c.2300071-.0382326.4634885-.0765666.700676-.1150666zm2.1806 11.4567c16.04-.881 32.35.104 48.063 3.593l.433418 1.1327175c1.85148 4.9322254 2.391961 7.7496963 2.599582 13.0202825-17.333-.295-34.658-.416-51.993-.363l.0172039-1.5459986.0355939-2.1291391.0316765-1.3205412c.005877-.2148163.0120662-.4272594.0185881-.6377248l.0432849-1.2422244c.0079335-.2041368.0162403-.407087.0249406-.609246l.0570871-1.2066259c.0103558-.2005769.0211457-.4011538.0323901-.6021263l.0730829-1.2137456.0849654-1.2422244c.0152053-.2104654.0309463-.4229085.0472433-.6377248l.1046173-1.3205412c.0186025-.2258915.0378016-.4549472.0576178-.6875628l.1955518-2.2003362c.0237008-.2575346.0480795-.5198156.0731564-.7872387z"
    />
</svg>